<mxfile host="app.diagrams.net" modified="2023-05-23T21:38:31.186Z" agent="Mozilla/5.0 (X11; Linux x86_64) AppleWebKit/537.36 (KHTML, like Gecko) Chrome/113.0.0.0 Safari/537.36" etag="cUrC7ZdJXW3Sbgq6q34R" version="21.3.3" type="device">
  <diagram name="Page-1" id="iT5oNnomHrVyOzOZQQI_">
    <mxGraphModel dx="827" dy="1584" grid="1" gridSize="10" guides="1" tooltips="1" connect="1" arrows="1" fold="1" page="1" pageScale="1" pageWidth="827" pageHeight="1169" math="1" shadow="0">
      <root>
        <mxCell id="0" />
        <mxCell id="1" parent="0" />
        <mxCell id="5YHPVXyQbfZoT6PR4rWS-83" style="edgeStyle=none;rounded=0;orthogonalLoop=1;jettySize=auto;html=1;entryX=0;entryY=0.5;entryDx=0;entryDy=0;exitX=1;exitY=0.5;exitDx=0;exitDy=0;" edge="1" parent="1" source="5YHPVXyQbfZoT6PR4rWS-1" target="5YHPVXyQbfZoT6PR4rWS-80">
          <mxGeometry relative="1" as="geometry" />
        </mxCell>
        <mxCell id="5YHPVXyQbfZoT6PR4rWS-1" value="\(P\)" style="ellipse;whiteSpace=wrap;html=1;aspect=fixed;fillColor=#d5e8d4;strokeColor=#82b366;" vertex="1" parent="1">
          <mxGeometry x="270" y="40" width="80" height="80" as="geometry" />
        </mxCell>
        <mxCell id="5YHPVXyQbfZoT6PR4rWS-84" style="edgeStyle=none;rounded=0;orthogonalLoop=1;jettySize=auto;html=1;entryX=0;entryY=0.5;entryDx=0;entryDy=0;exitX=1;exitY=0.5;exitDx=0;exitDy=0;" edge="1" parent="1" source="5YHPVXyQbfZoT6PR4rWS-2" target="5YHPVXyQbfZoT6PR4rWS-80">
          <mxGeometry relative="1" as="geometry" />
        </mxCell>
        <mxCell id="5YHPVXyQbfZoT6PR4rWS-2" value="\(P\)" style="ellipse;whiteSpace=wrap;html=1;aspect=fixed;fillColor=#d5e8d4;strokeColor=#82b366;" vertex="1" parent="1">
          <mxGeometry x="270" y="130" width="80" height="80" as="geometry" />
        </mxCell>
        <mxCell id="5YHPVXyQbfZoT6PR4rWS-59" style="edgeStyle=none;rounded=0;orthogonalLoop=1;jettySize=auto;html=1;entryX=0;entryY=0.5;entryDx=0;entryDy=0;exitX=1;exitY=0.5;exitDx=0;exitDy=0;" edge="1" parent="1" source="5YHPVXyQbfZoT6PR4rWS-3" target="5YHPVXyQbfZoT6PR4rWS-49">
          <mxGeometry relative="1" as="geometry" />
        </mxCell>
        <mxCell id="5YHPVXyQbfZoT6PR4rWS-60" style="edgeStyle=none;rounded=0;orthogonalLoop=1;jettySize=auto;html=1;entryX=0;entryY=0.5;entryDx=0;entryDy=0;" edge="1" parent="1" source="5YHPVXyQbfZoT6PR4rWS-3" target="5YHPVXyQbfZoT6PR4rWS-50">
          <mxGeometry relative="1" as="geometry" />
        </mxCell>
        <mxCell id="5YHPVXyQbfZoT6PR4rWS-61" style="edgeStyle=none;rounded=0;orthogonalLoop=1;jettySize=auto;html=1;entryX=0;entryY=0.5;entryDx=0;entryDy=0;exitX=1;exitY=0.5;exitDx=0;exitDy=0;" edge="1" parent="1" source="5YHPVXyQbfZoT6PR4rWS-3" target="5YHPVXyQbfZoT6PR4rWS-48">
          <mxGeometry relative="1" as="geometry" />
        </mxCell>
        <mxCell id="5YHPVXyQbfZoT6PR4rWS-3" value="\(P\)" style="ellipse;whiteSpace=wrap;html=1;aspect=fixed;fillColor=#d5e8d4;strokeColor=#82b366;" vertex="1" parent="1">
          <mxGeometry x="270" y="280" width="80" height="80" as="geometry" />
        </mxCell>
        <mxCell id="5YHPVXyQbfZoT6PR4rWS-6" style="rounded=0;orthogonalLoop=1;jettySize=auto;html=1;entryX=0;entryY=0.5;entryDx=0;entryDy=0;exitX=1;exitY=0.5;exitDx=0;exitDy=0;" edge="1" parent="1" source="5YHPVXyQbfZoT6PR4rWS-5" target="5YHPVXyQbfZoT6PR4rWS-1">
          <mxGeometry relative="1" as="geometry" />
        </mxCell>
        <mxCell id="5YHPVXyQbfZoT6PR4rWS-7" style="rounded=0;orthogonalLoop=1;jettySize=auto;html=1;entryX=0;entryY=0.5;entryDx=0;entryDy=0;exitX=1;exitY=0.5;exitDx=0;exitDy=0;" edge="1" parent="1" source="5YHPVXyQbfZoT6PR4rWS-5" target="5YHPVXyQbfZoT6PR4rWS-2">
          <mxGeometry relative="1" as="geometry">
            <mxPoint x="150" y="60" as="sourcePoint" />
          </mxGeometry>
        </mxCell>
        <mxCell id="5YHPVXyQbfZoT6PR4rWS-9" style="rounded=0;orthogonalLoop=1;jettySize=auto;html=1;entryX=0;entryY=0.5;entryDx=0;entryDy=0;exitX=1;exitY=0.5;exitDx=0;exitDy=0;" edge="1" parent="1" source="5YHPVXyQbfZoT6PR4rWS-5" target="5YHPVXyQbfZoT6PR4rWS-3">
          <mxGeometry relative="1" as="geometry" />
        </mxCell>
        <mxCell id="5YHPVXyQbfZoT6PR4rWS-5" value="1" style="ellipse;whiteSpace=wrap;html=1;aspect=fixed;fillColor=#f8cecc;strokeColor=#b85450;" vertex="1" parent="1">
          <mxGeometry x="110" y="40" width="40" height="40" as="geometry" />
        </mxCell>
        <mxCell id="5YHPVXyQbfZoT6PR4rWS-12" value="" style="endArrow=none;dashed=1;html=1;dashPattern=1 3;strokeWidth=5;rounded=0;" edge="1" parent="1">
          <mxGeometry width="50" height="50" relative="1" as="geometry">
            <mxPoint x="310" y="270" as="sourcePoint" />
            <mxPoint x="310" y="220" as="targetPoint" />
          </mxGeometry>
        </mxCell>
        <mxCell id="5YHPVXyQbfZoT6PR4rWS-13" value="\(y_1\)" style="ellipse;whiteSpace=wrap;html=1;aspect=fixed;fillColor=#dae8fc;strokeColor=#6c8ebf;" vertex="1" parent="1">
          <mxGeometry x="800" y="60" width="40" height="40" as="geometry" />
        </mxCell>
        <mxCell id="5YHPVXyQbfZoT6PR4rWS-15" value="\(y_2\)" style="ellipse;whiteSpace=wrap;html=1;aspect=fixed;fillColor=#dae8fc;strokeColor=#6c8ebf;" vertex="1" parent="1">
          <mxGeometry x="800" y="150" width="40" height="40" as="geometry" />
        </mxCell>
        <mxCell id="5YHPVXyQbfZoT6PR4rWS-17" value="\(y_K\)" style="ellipse;whiteSpace=wrap;html=1;aspect=fixed;fillColor=#dae8fc;strokeColor=#6c8ebf;" vertex="1" parent="1">
          <mxGeometry x="800" y="300" width="40" height="40" as="geometry" />
        </mxCell>
        <mxCell id="5YHPVXyQbfZoT6PR4rWS-19" value="" style="endArrow=none;dashed=1;html=1;dashPattern=1 3;strokeWidth=5;rounded=0;" edge="1" parent="1">
          <mxGeometry width="50" height="50" relative="1" as="geometry">
            <mxPoint x="819.5" y="270" as="sourcePoint" />
            <mxPoint x="819.5" y="220" as="targetPoint" />
          </mxGeometry>
        </mxCell>
        <mxCell id="5YHPVXyQbfZoT6PR4rWS-35" style="rounded=0;orthogonalLoop=1;jettySize=auto;html=1;entryX=0;entryY=0.5;entryDx=0;entryDy=0;exitX=1;exitY=0.5;exitDx=0;exitDy=0;" edge="1" parent="1" source="5YHPVXyQbfZoT6PR4rWS-30" target="5YHPVXyQbfZoT6PR4rWS-1">
          <mxGeometry relative="1" as="geometry" />
        </mxCell>
        <mxCell id="5YHPVXyQbfZoT6PR4rWS-36" style="rounded=0;orthogonalLoop=1;jettySize=auto;html=1;exitX=1;exitY=0.5;exitDx=0;exitDy=0;" edge="1" parent="1" source="5YHPVXyQbfZoT6PR4rWS-30">
          <mxGeometry relative="1" as="geometry">
            <mxPoint x="270" y="170" as="targetPoint" />
          </mxGeometry>
        </mxCell>
        <mxCell id="5YHPVXyQbfZoT6PR4rWS-37" style="rounded=0;orthogonalLoop=1;jettySize=auto;html=1;exitX=1;exitY=0.5;exitDx=0;exitDy=0;" edge="1" parent="1" source="5YHPVXyQbfZoT6PR4rWS-30">
          <mxGeometry relative="1" as="geometry">
            <mxPoint x="270" y="320" as="targetPoint" />
          </mxGeometry>
        </mxCell>
        <mxCell id="5YHPVXyQbfZoT6PR4rWS-30" value="\(x_1\)" style="ellipse;whiteSpace=wrap;html=1;aspect=fixed;fillColor=#f8cecc;strokeColor=#b85450;" vertex="1" parent="1">
          <mxGeometry x="110" y="120" width="40" height="40" as="geometry" />
        </mxCell>
        <mxCell id="5YHPVXyQbfZoT6PR4rWS-38" style="edgeStyle=none;rounded=0;orthogonalLoop=1;jettySize=auto;html=1;entryX=0;entryY=0.5;entryDx=0;entryDy=0;exitX=1;exitY=0.5;exitDx=0;exitDy=0;" edge="1" parent="1" source="5YHPVXyQbfZoT6PR4rWS-31" target="5YHPVXyQbfZoT6PR4rWS-1">
          <mxGeometry relative="1" as="geometry" />
        </mxCell>
        <mxCell id="5YHPVXyQbfZoT6PR4rWS-39" style="edgeStyle=none;rounded=0;orthogonalLoop=1;jettySize=auto;html=1;entryX=0;entryY=0.5;entryDx=0;entryDy=0;exitX=1;exitY=0.5;exitDx=0;exitDy=0;" edge="1" parent="1" source="5YHPVXyQbfZoT6PR4rWS-31" target="5YHPVXyQbfZoT6PR4rWS-2">
          <mxGeometry relative="1" as="geometry" />
        </mxCell>
        <mxCell id="5YHPVXyQbfZoT6PR4rWS-40" style="edgeStyle=none;rounded=0;orthogonalLoop=1;jettySize=auto;html=1;entryX=0;entryY=0.5;entryDx=0;entryDy=0;exitX=1;exitY=0.5;exitDx=0;exitDy=0;" edge="1" parent="1" source="5YHPVXyQbfZoT6PR4rWS-31" target="5YHPVXyQbfZoT6PR4rWS-3">
          <mxGeometry relative="1" as="geometry" />
        </mxCell>
        <mxCell id="5YHPVXyQbfZoT6PR4rWS-31" value="\(x_2\)" style="ellipse;whiteSpace=wrap;html=1;aspect=fixed;fillColor=#f8cecc;strokeColor=#b85450;" vertex="1" parent="1">
          <mxGeometry x="110" y="200" width="40" height="40" as="geometry" />
        </mxCell>
        <mxCell id="5YHPVXyQbfZoT6PR4rWS-41" style="edgeStyle=none;rounded=0;orthogonalLoop=1;jettySize=auto;html=1;entryX=0;entryY=0.5;entryDx=0;entryDy=0;exitX=1;exitY=0.5;exitDx=0;exitDy=0;" edge="1" parent="1" source="5YHPVXyQbfZoT6PR4rWS-32" target="5YHPVXyQbfZoT6PR4rWS-1">
          <mxGeometry relative="1" as="geometry" />
        </mxCell>
        <mxCell id="5YHPVXyQbfZoT6PR4rWS-42" style="edgeStyle=none;rounded=0;orthogonalLoop=1;jettySize=auto;html=1;entryX=0;entryY=0.5;entryDx=0;entryDy=0;exitX=1;exitY=0.5;exitDx=0;exitDy=0;" edge="1" parent="1" source="5YHPVXyQbfZoT6PR4rWS-32" target="5YHPVXyQbfZoT6PR4rWS-2">
          <mxGeometry relative="1" as="geometry" />
        </mxCell>
        <mxCell id="5YHPVXyQbfZoT6PR4rWS-43" style="edgeStyle=none;rounded=0;orthogonalLoop=1;jettySize=auto;html=1;entryX=0;entryY=0.5;entryDx=0;entryDy=0;exitX=1;exitY=0.5;exitDx=0;exitDy=0;" edge="1" parent="1" source="5YHPVXyQbfZoT6PR4rWS-32" target="5YHPVXyQbfZoT6PR4rWS-3">
          <mxGeometry relative="1" as="geometry" />
        </mxCell>
        <mxCell id="5YHPVXyQbfZoT6PR4rWS-32" value="\(x_d\)" style="ellipse;whiteSpace=wrap;html=1;aspect=fixed;fillColor=#f8cecc;strokeColor=#b85450;" vertex="1" parent="1">
          <mxGeometry x="110" y="320" width="40" height="40" as="geometry" />
        </mxCell>
        <mxCell id="5YHPVXyQbfZoT6PR4rWS-33" value="" style="endArrow=none;dashed=1;html=1;dashPattern=1 3;strokeWidth=5;rounded=0;" edge="1" parent="1">
          <mxGeometry width="50" height="50" relative="1" as="geometry">
            <mxPoint x="129.5" y="300" as="sourcePoint" />
            <mxPoint x="129.5" y="250" as="targetPoint" />
          </mxGeometry>
        </mxCell>
        <mxCell id="5YHPVXyQbfZoT6PR4rWS-34" value="&lt;b&gt;&lt;font style=&quot;font-size: 14px;&quot;&gt;Input Layer&lt;/font&gt;&lt;/b&gt;" style="text;html=1;align=center;verticalAlign=middle;resizable=0;points=[];autosize=1;strokeColor=none;fillColor=none;" vertex="1" parent="1">
          <mxGeometry x="80" y="-10" width="100" height="30" as="geometry" />
        </mxCell>
        <mxCell id="5YHPVXyQbfZoT6PR4rWS-67" style="edgeStyle=none;rounded=0;orthogonalLoop=1;jettySize=auto;html=1;entryX=0;entryY=0.5;entryDx=0;entryDy=0;" edge="1" parent="1" source="5YHPVXyQbfZoT6PR4rWS-48" target="5YHPVXyQbfZoT6PR4rWS-63">
          <mxGeometry relative="1" as="geometry" />
        </mxCell>
        <mxCell id="5YHPVXyQbfZoT6PR4rWS-68" style="edgeStyle=none;rounded=0;orthogonalLoop=1;jettySize=auto;html=1;entryX=0;entryY=0.5;entryDx=0;entryDy=0;exitX=1;exitY=0.5;exitDx=0;exitDy=0;" edge="1" parent="1" source="5YHPVXyQbfZoT6PR4rWS-48" target="5YHPVXyQbfZoT6PR4rWS-64">
          <mxGeometry relative="1" as="geometry" />
        </mxCell>
        <mxCell id="5YHPVXyQbfZoT6PR4rWS-90" style="edgeStyle=orthogonalEdgeStyle;rounded=0;orthogonalLoop=1;jettySize=auto;html=1;entryX=0;entryY=0.5;entryDx=0;entryDy=0;exitX=1;exitY=0.5;exitDx=0;exitDy=0;" edge="1" parent="1" source="5YHPVXyQbfZoT6PR4rWS-48" target="5YHPVXyQbfZoT6PR4rWS-48">
          <mxGeometry relative="1" as="geometry">
            <mxPoint x="630" y="-30" as="targetPoint" />
            <Array as="points">
              <mxPoint x="600" />
              <mxPoint x="520" />
            </Array>
          </mxGeometry>
        </mxCell>
        <mxCell id="5YHPVXyQbfZoT6PR4rWS-48" value="\(P\)" style="ellipse;whiteSpace=wrap;html=1;aspect=fixed;fillColor=#d5e8d4;strokeColor=#82b366;" vertex="1" parent="1">
          <mxGeometry x="520" y="40" width="80" height="80" as="geometry" />
        </mxCell>
        <mxCell id="5YHPVXyQbfZoT6PR4rWS-70" style="edgeStyle=none;rounded=0;orthogonalLoop=1;jettySize=auto;html=1;entryX=0;entryY=0.5;entryDx=0;entryDy=0;exitX=1;exitY=0.5;exitDx=0;exitDy=0;" edge="1" parent="1" source="5YHPVXyQbfZoT6PR4rWS-49" target="5YHPVXyQbfZoT6PR4rWS-63">
          <mxGeometry relative="1" as="geometry" />
        </mxCell>
        <mxCell id="5YHPVXyQbfZoT6PR4rWS-71" style="edgeStyle=none;rounded=0;orthogonalLoop=1;jettySize=auto;html=1;entryX=0;entryY=0.5;entryDx=0;entryDy=0;" edge="1" parent="1" source="5YHPVXyQbfZoT6PR4rWS-49" target="5YHPVXyQbfZoT6PR4rWS-64">
          <mxGeometry relative="1" as="geometry" />
        </mxCell>
        <mxCell id="5YHPVXyQbfZoT6PR4rWS-49" value="\(P\)" style="ellipse;whiteSpace=wrap;html=1;aspect=fixed;fillColor=#d5e8d4;strokeColor=#82b366;" vertex="1" parent="1">
          <mxGeometry x="520" y="130" width="80" height="80" as="geometry" />
        </mxCell>
        <mxCell id="5YHPVXyQbfZoT6PR4rWS-73" style="edgeStyle=none;rounded=0;orthogonalLoop=1;jettySize=auto;html=1;entryX=0;entryY=0.5;entryDx=0;entryDy=0;" edge="1" parent="1" source="5YHPVXyQbfZoT6PR4rWS-50" target="5YHPVXyQbfZoT6PR4rWS-65">
          <mxGeometry relative="1" as="geometry" />
        </mxCell>
        <mxCell id="5YHPVXyQbfZoT6PR4rWS-74" style="edgeStyle=none;rounded=0;orthogonalLoop=1;jettySize=auto;html=1;entryX=0;entryY=0.5;entryDx=0;entryDy=0;exitX=1;exitY=0.5;exitDx=0;exitDy=0;" edge="1" parent="1" source="5YHPVXyQbfZoT6PR4rWS-50" target="5YHPVXyQbfZoT6PR4rWS-64">
          <mxGeometry relative="1" as="geometry" />
        </mxCell>
        <mxCell id="5YHPVXyQbfZoT6PR4rWS-88" style="edgeStyle=orthogonalEdgeStyle;rounded=0;orthogonalLoop=1;jettySize=auto;html=1;entryX=0.5;entryY=1;entryDx=0;entryDy=0;exitX=1;exitY=0.5;exitDx=0;exitDy=0;" edge="1" parent="1" source="5YHPVXyQbfZoT6PR4rWS-50" target="5YHPVXyQbfZoT6PR4rWS-3">
          <mxGeometry relative="1" as="geometry">
            <Array as="points">
              <mxPoint x="600" y="390" />
              <mxPoint x="310" y="390" />
            </Array>
          </mxGeometry>
        </mxCell>
        <mxCell id="5YHPVXyQbfZoT6PR4rWS-50" value="\(P\)" style="ellipse;whiteSpace=wrap;html=1;aspect=fixed;fillColor=#d5e8d4;strokeColor=#82b366;" vertex="1" parent="1">
          <mxGeometry x="520" y="280" width="80" height="80" as="geometry" />
        </mxCell>
        <mxCell id="5YHPVXyQbfZoT6PR4rWS-51" value="" style="endArrow=none;dashed=1;html=1;dashPattern=1 3;strokeWidth=5;rounded=0;" edge="1" parent="1">
          <mxGeometry width="50" height="50" relative="1" as="geometry">
            <mxPoint x="559.5" y="270" as="sourcePoint" />
            <mxPoint x="559.5" y="220" as="targetPoint" />
          </mxGeometry>
        </mxCell>
        <mxCell id="5YHPVXyQbfZoT6PR4rWS-76" style="edgeStyle=none;rounded=0;orthogonalLoop=1;jettySize=auto;html=1;entryX=0;entryY=0.5;entryDx=0;entryDy=0;" edge="1" parent="1" source="5YHPVXyQbfZoT6PR4rWS-63" target="5YHPVXyQbfZoT6PR4rWS-13">
          <mxGeometry relative="1" as="geometry" />
        </mxCell>
        <mxCell id="5YHPVXyQbfZoT6PR4rWS-63" value="\(P_1^{(Out)}\)" style="ellipse;whiteSpace=wrap;html=1;aspect=fixed;fillColor=#dae8fc;strokeColor=#6c8ebf;" vertex="1" parent="1">
          <mxGeometry x="670" y="40" width="80" height="80" as="geometry" />
        </mxCell>
        <mxCell id="5YHPVXyQbfZoT6PR4rWS-77" style="edgeStyle=none;rounded=0;orthogonalLoop=1;jettySize=auto;html=1;entryX=0;entryY=0.5;entryDx=0;entryDy=0;" edge="1" parent="1" source="5YHPVXyQbfZoT6PR4rWS-64" target="5YHPVXyQbfZoT6PR4rWS-15">
          <mxGeometry relative="1" as="geometry" />
        </mxCell>
        <mxCell id="5YHPVXyQbfZoT6PR4rWS-64" value="\(P_2^{(Out)}\)" style="ellipse;whiteSpace=wrap;html=1;aspect=fixed;fillColor=#dae8fc;strokeColor=#6c8ebf;" vertex="1" parent="1">
          <mxGeometry x="670" y="130" width="80" height="80" as="geometry" />
        </mxCell>
        <mxCell id="5YHPVXyQbfZoT6PR4rWS-78" style="edgeStyle=none;rounded=0;orthogonalLoop=1;jettySize=auto;html=1;entryX=0;entryY=0.5;entryDx=0;entryDy=0;" edge="1" parent="1" source="5YHPVXyQbfZoT6PR4rWS-65" target="5YHPVXyQbfZoT6PR4rWS-17">
          <mxGeometry relative="1" as="geometry" />
        </mxCell>
        <mxCell id="5YHPVXyQbfZoT6PR4rWS-65" value="\(P_{K}^{(Out)}\)" style="ellipse;whiteSpace=wrap;html=1;aspect=fixed;fillColor=#dae8fc;strokeColor=#6c8ebf;" vertex="1" parent="1">
          <mxGeometry x="670" y="280" width="80" height="80" as="geometry" />
        </mxCell>
        <mxCell id="5YHPVXyQbfZoT6PR4rWS-66" value="" style="endArrow=none;dashed=1;html=1;dashPattern=1 3;strokeWidth=5;rounded=0;fillColor=#dae8fc;strokeColor=#6c8ebf;" edge="1" parent="1">
          <mxGeometry width="50" height="50" relative="1" as="geometry">
            <mxPoint x="709.5" y="270" as="sourcePoint" />
            <mxPoint x="709.5" y="220" as="targetPoint" />
          </mxGeometry>
        </mxCell>
        <mxCell id="5YHPVXyQbfZoT6PR4rWS-79" value="&lt;b&gt;&lt;font style=&quot;font-size: 14px;&quot;&gt;Output Layer&lt;/font&gt;&lt;/b&gt;" style="text;html=1;align=center;verticalAlign=middle;resizable=0;points=[];autosize=1;strokeColor=none;fillColor=none;" vertex="1" parent="1">
          <mxGeometry x="655" y="-10" width="110" height="30" as="geometry" />
        </mxCell>
        <mxCell id="5YHPVXyQbfZoT6PR4rWS-85" style="edgeStyle=none;rounded=0;orthogonalLoop=1;jettySize=auto;html=1;exitX=1;exitY=0.5;exitDx=0;exitDy=0;" edge="1" parent="1" source="5YHPVXyQbfZoT6PR4rWS-80">
          <mxGeometry relative="1" as="geometry">
            <mxPoint x="520" y="80" as="targetPoint" />
          </mxGeometry>
        </mxCell>
        <mxCell id="5YHPVXyQbfZoT6PR4rWS-86" style="edgeStyle=none;rounded=0;orthogonalLoop=1;jettySize=auto;html=1;entryX=0;entryY=0.5;entryDx=0;entryDy=0;exitX=1;exitY=0.5;exitDx=0;exitDy=0;" edge="1" parent="1" source="5YHPVXyQbfZoT6PR4rWS-80" target="5YHPVXyQbfZoT6PR4rWS-50">
          <mxGeometry relative="1" as="geometry" />
        </mxCell>
        <mxCell id="5YHPVXyQbfZoT6PR4rWS-87" style="edgeStyle=orthogonalEdgeStyle;rounded=0;orthogonalLoop=1;jettySize=auto;html=1;exitX=1;exitY=0.5;exitDx=0;exitDy=0;" edge="1" parent="1" source="5YHPVXyQbfZoT6PR4rWS-80" target="5YHPVXyQbfZoT6PR4rWS-1">
          <mxGeometry relative="1" as="geometry">
            <Array as="points">
              <mxPoint x="480" />
              <mxPoint x="310" />
            </Array>
          </mxGeometry>
        </mxCell>
        <mxCell id="5YHPVXyQbfZoT6PR4rWS-80" value="\(P\)" style="ellipse;whiteSpace=wrap;html=1;aspect=fixed;fillColor=#d5e8d4;strokeColor=#82b366;" vertex="1" parent="1">
          <mxGeometry x="400" y="40" width="80" height="80" as="geometry" />
        </mxCell>
      </root>
    </mxGraphModel>
  </diagram>
</mxfile>
